<svg width="40" height="40" viewBox="0 0 40 40" fill="none" xmlns="http://www.w3.org/2000/svg">
<circle cx="20" cy="20" r="20" fill="#2F2F2F"/>
<path d="M33.1247 12.448C32.1855 12.8531 31.1635 13.1447 30.1108 13.2582C31.2037 12.6089 32.0222 11.5831 32.4127 10.3732C31.387 10.9833 30.2635 11.4112 29.0918 11.6377C28.6021 11.1142 28.0098 10.6971 27.3519 10.4125C26.6939 10.1279 25.9844 9.98183 25.2676 9.98341C22.3672 9.98341 20.0346 12.3344 20.0346 15.2195C20.0346 15.6246 20.0837 16.0297 20.1635 16.4195C15.8206 16.1924 11.9473 14.1176 9.37221 10.941C8.90301 11.7424 8.65713 12.6549 8.66016 13.5836C8.66016 15.4005 9.58398 17.0027 10.9927 17.9449C10.1625 17.9122 9.35178 17.684 8.62639 17.2789V17.3433C8.62639 19.8877 10.4249 21.9962 12.822 22.4812C12.3719 22.5981 11.9089 22.6579 11.4439 22.6592C11.1032 22.6592 10.781 22.6254 10.4556 22.5794C11.1186 24.6542 13.0491 26.1611 15.3479 26.2103C13.5494 27.619 11.2966 28.4477 8.85045 28.4477C8.41155 28.4477 8.00642 28.4324 7.58594 28.3832C9.90625 29.8718 12.6593 30.7312 15.6242 30.7312C25.2492 30.7312 30.5159 22.7574 30.5159 15.8364C30.5159 15.6092 30.5159 15.3821 30.5006 15.155C31.5195 14.4092 32.4127 13.4854 33.1247 12.448Z" fill="white"/>
</svg>
