<svg width="68" height="68" viewBox="0 0 68 68" fill="none" xmlns="http://www.w3.org/2000/svg">
<circle cx="33.9" cy="33.9" r="33.9" fill="#2F2F2F"/>
<g clip-path="url(#clip0_72_245)">
<path d="M34.9833 16.3746C36.9328 16.3448 38.8674 16.3597 40.8021 16.3448C40.9211 18.6217 41.7396 20.9433 43.4064 22.5505C45.0731 24.2024 47.4244 24.9614 49.7162 25.2143V31.2117C47.5732 31.1373 45.4154 30.6908 43.4659 29.7681C42.6176 29.3812 41.8289 28.8901 41.0551 28.3841C41.0402 32.7296 41.0699 37.0751 41.0253 41.4056C40.9062 43.4891 40.2217 45.5576 39.0163 47.269C37.0668 50.1263 33.6886 51.9865 30.2212 52.046C28.0931 52.1651 25.965 51.5847 24.1494 50.5132C21.1433 48.7423 19.0301 45.4981 18.7176 42.0158C18.6879 41.2717 18.673 40.5276 18.7027 39.7984C18.9706 36.9709 20.3695 34.2624 22.5422 32.4171C25.0126 30.2741 28.4651 29.2473 31.6945 29.8574C31.7242 32.0599 31.6349 34.2624 31.6349 36.4649C30.1617 35.9887 28.4354 36.1226 27.1407 37.0155C26.2031 37.6257 25.4888 38.5632 25.1168 39.6198C24.8042 40.3788 24.8935 41.2122 24.9084 42.0158C25.2656 44.4564 27.6169 46.5101 30.117 46.2868C31.7838 46.2719 33.3761 45.3046 34.2392 43.8909C34.522 43.3998 34.8345 42.8938 34.8494 42.3134C34.9982 39.6496 34.9387 37.0006 34.9536 34.3368C34.9684 28.3395 34.9387 22.3571 34.9833 16.3746Z" fill="white"/>
</g>
<defs>
<clipPath id="clip0_72_245">
<rect width="35.7161" height="35.7161" fill="white" transform="translate(16.344 16.3448)"/>
</clipPath>
</defs>
</svg>
