<svg width="68" height="68" viewBox="0 0 68 68" fill="none" xmlns="http://www.w3.org/2000/svg">
<circle cx="33.9" cy="33.9" r="33.9" fill="#2F2F2F"/>
<path d="M39.4434 33.8428C39.4434 34.9503 39.115 36.0329 38.4997 36.9538C37.8844 37.8746 37.0099 38.5923 35.9867 39.0162C34.9635 39.44 33.8376 39.5509 32.7514 39.3348C31.6652 39.1187 30.6674 38.5854 29.8843 37.8023C29.1012 37.0192 28.5679 36.0215 28.3519 34.9353C28.1358 33.8491 28.2467 32.7232 28.6705 31.7C29.0943 30.6768 29.812 29.8023 30.7329 29.187C31.6537 28.5717 32.7363 28.2433 33.8438 28.2433C35.3284 28.245 36.7517 28.8355 37.8014 29.8853C38.8512 30.935 39.4417 32.3583 39.4434 33.8428ZM51.3424 26.1435V41.5422C51.3395 44.1402 50.3061 46.631 48.469 48.468C46.632 50.3051 44.1412 51.3385 41.5432 51.3414H26.1444C23.5464 51.3385 21.0557 50.3051 19.2186 48.468C17.3815 46.631 16.3482 44.1402 16.3452 41.5422V26.1435C16.3482 23.5455 17.3815 21.0547 19.2186 19.2176C21.0557 17.3806 23.5464 16.3472 26.1444 16.3442H41.5432C44.1412 16.3472 46.632 17.3806 48.469 19.2176C50.3061 21.0547 51.3395 23.5455 51.3424 26.1435ZM42.2431 33.8428C42.2431 32.1816 41.7505 30.5577 40.8276 29.1764C39.9047 27.7952 38.5929 26.7186 37.0581 26.0829C35.5233 25.4471 33.8345 25.2808 32.2052 25.6049C30.5759 25.929 29.0793 26.729 27.9046 27.9036C26.7299 29.0783 25.93 30.5749 25.6059 32.2042C25.2818 33.8335 25.4481 35.5223 26.0838 37.0571C26.7196 38.5919 27.7961 39.9037 29.1774 40.8266C30.5587 41.7496 32.1826 42.2422 33.8438 42.2422C36.0707 42.2397 38.2056 41.3539 39.7803 39.7793C41.3549 38.2047 42.2406 36.0697 42.2431 33.8428ZM45.0429 24.7436C45.0429 24.3283 44.9198 23.9223 44.689 23.577C44.4583 23.2316 44.1304 22.9625 43.7467 22.8036C43.363 22.6446 42.9408 22.6031 42.5334 22.6841C42.1261 22.7651 41.752 22.9651 41.4583 23.2588C41.1646 23.5524 40.9646 23.9266 40.8836 24.3339C40.8026 24.7412 40.8442 25.1634 41.0031 25.5471C41.162 25.9308 41.4312 26.2588 41.7765 26.4895C42.1218 26.7202 42.5278 26.8434 42.9431 26.8434C43.5 26.8434 44.0341 26.6222 44.4279 26.2284C44.8217 25.8346 45.0429 25.3005 45.0429 24.7436Z" fill="white"/>
</svg>
