<svg width="22" height="22" viewBox="0 0 22 22" fill="none" xmlns="http://www.w3.org/2000/svg">
<path fill-rule="evenodd" clip-rule="evenodd" d="M2.38814 2.93354C2.00237 2.93354 1.6324 3.08678 1.35962 3.35956C1.08684 3.63234 0.933594 4.00231 0.933594 4.38808V17.479C0.933594 17.8648 1.08684 18.2347 1.35962 18.5075C1.6324 18.7803 2.00237 18.9335 2.38814 18.9335H15.479C15.8648 18.9335 16.2348 18.7803 16.5076 18.5075C16.7803 18.2347 16.9336 17.8648 16.9336 17.479V12.3881C16.9336 12.1952 16.857 12.0102 16.7206 11.8738C16.5842 11.7374 16.3992 11.6608 16.2063 11.6608C16.0134 11.6608 15.8285 11.7374 15.6921 11.8738C15.5557 12.0102 15.479 12.1952 15.479 12.3881V17.479H2.38814V4.38808H7.47905C7.67193 4.38808 7.85692 4.31146 7.99331 4.17507C8.1297 4.03868 8.20632 3.85369 8.20632 3.66081C8.20632 3.46792 8.1297 3.28294 7.99331 3.14655C7.85692 3.01016 7.67193 2.93354 7.47905 2.93354H2.38814ZM16.7212 3.1459C16.8565 3.28148 16.9328 3.46494 16.9336 3.65644V8.02444C16.9336 8.21733 16.857 8.40231 16.7206 8.5387C16.5842 8.67509 16.3992 8.75172 16.2063 8.75172C16.0134 8.75172 15.8285 8.67509 15.6921 8.5387C15.5557 8.40231 15.479 8.21733 15.479 8.02444V5.41644L7.99396 12.903C7.92634 12.9706 7.84606 13.0242 7.75772 13.0608C7.66937 13.0974 7.57468 13.1163 7.47905 13.1163C7.38342 13.1163 7.28873 13.0974 7.20038 13.0608C7.11203 13.0242 7.03176 12.9706 6.96414 12.903C6.89652 12.8354 6.84288 12.7551 6.80629 12.6667C6.76969 12.5784 6.75086 12.4837 6.75086 12.3881C6.75086 12.2925 6.76969 12.1978 6.80629 12.1094C6.84288 12.0211 6.89652 11.9408 6.96414 11.8732L14.4507 4.38808H11.8427C11.6498 4.38808 11.4648 4.31146 11.3284 4.17507C11.192 4.03868 11.1154 3.85369 11.1154 3.66081C11.1154 3.46792 11.192 3.28294 11.3284 3.14655C11.4648 3.01016 11.6498 2.93354 11.8427 2.93354H16.2063C16.3019 2.93329 16.3966 2.95192 16.485 2.98836C16.5733 3.0248 16.6536 3.07834 16.7212 3.1459Z" fill="#333333"/>
</svg>
